<svg width="24" height="22" viewBox="0 0 24 22" fill="none" xmlns="http://www.w3.org/2000/svg">
<g clip-path="url(#clip0_484_10866)">
<path d="M22.7067 15.9039L20.376 13.8646C19.9542 13.4957 19.4259 13.2339 18.8474 13.1071C18.2689 12.9804 17.6619 12.9933 17.0912 13.1447C16.5205 13.2961 16.0074 13.5802 15.6068 13.9666C15.2061 14.3531 14.9328 14.8275 14.816 15.3393C10.9727 14.7104 7.2347 11.4531 7.00203 8.54168C7.65542 8.43651 8.25674 8.1598 8.72603 7.74834C9.34393 7.20761 9.69106 6.47426 9.69106 5.70959C9.69106 4.94493 9.34393 4.21158 8.72603 3.67084L6.39603 1.63151C5.77805 1.09085 4.93993 0.787109 4.06603 0.787109C3.19213 0.787109 2.35401 1.09085 1.73603 1.63151C-5.25464 7.74834 15.716 26.0977 22.7067 19.9808C23.3242 19.4401 23.6711 18.7069 23.6711 17.9424C23.6711 17.1779 23.3242 16.4447 22.7067 15.9039V15.9039Z" fill="white"/>
</g>
<defs>
<clipPath id="clip0_484_10866">
<rect width="24" height="21" fill="white" transform="translate(0 0.5)"/>
</clipPath>
</defs>
</svg>
