<svg width="24" height="22" viewBox="0 0 24 22" fill="none" xmlns="http://www.w3.org/2000/svg">
<g clip-path="url(#clip0_204_46)">
<path d="M22.7068 15.9042L20.3762 13.8648C19.9544 13.4959 19.426 13.2342 18.8475 13.1074C18.269 12.9806 17.6621 12.9936 17.0914 13.145C16.5206 13.2963 16.0076 13.5804 15.6069 13.9669C15.2062 14.3534 14.9329 14.8278 14.8162 15.3395C10.9728 14.7107 7.23482 11.4533 7.00215 8.54192C7.65554 8.43675 8.25686 8.16004 8.72615 7.74859C9.34406 7.20785 9.69118 6.4745 9.69118 5.70984C9.69118 4.94517 9.34406 4.21182 8.72615 3.67109L6.39615 1.63175C5.77817 1.09109 4.94005 0.787354 4.06615 0.787354C3.19225 0.787354 2.35413 1.09109 1.73615 1.63175C-5.25452 7.74859 15.7162 26.0979 22.7068 19.9811C23.3244 19.4403 23.6712 18.7071 23.6712 17.9426C23.6712 17.1782 23.3244 16.445 22.7068 15.9042Z" fill="#162E45"/>
</g>
<defs>
<clipPath id="clip0_204_46">
<rect width="24" height="21" fill="white" transform="translate(0 0.5)"/>
</clipPath>
</defs>
</svg>
