<svg width="24" height="24" viewBox="0 0 24 24" fill="none" xmlns="http://www.w3.org/2000/svg">
<path d="M12 0.521729C18.6165 0.521729 24 4.88973 24 10.2597C24 12.4092 23.1675 14.3442 21.4275 16.2507C18.9105 19.1487 13.281 22.6782 12 23.2182C10.755 23.7432 10.899 22.9227 10.956 22.5987L10.9605 22.5717L11.1315 21.5442C11.172 21.2382 11.214 20.7627 11.0925 20.4597C10.9575 20.1252 10.4265 19.9512 10.0365 19.8672C4.269 19.1067 0 15.0732 0 10.2597C0 4.88973 5.385 0.521729 12 0.521729ZM7.533 12.0507H5.2455V7.89873C5.2455 7.83693 5.22105 7.77763 5.17749 7.73379C5.13393 7.68995 5.0748 7.66512 5.013 7.66473H4.17C4.13927 7.66473 4.10884 7.67078 4.08045 7.68254C4.05206 7.6943 4.02627 7.71154 4.00454 7.73327C3.98281 7.75499 3.96557 7.78079 3.95381 7.80918C3.94205 7.83757 3.936 7.868 3.936 7.89873V13.1277C3.936 13.1892 3.9615 13.2477 4.002 13.2882V13.2897L4.005 13.2927L4.008 13.2957C4.0515 13.3376 4.10965 13.3607 4.17 13.3602H7.533C7.662 13.3602 7.7655 13.2552 7.7655 13.1262V12.2862C7.7657 12.2555 7.75984 12.225 7.74826 12.1966C7.73669 12.1681 7.71961 12.1422 7.69802 12.1203C7.67644 12.0985 7.65075 12.0811 7.62243 12.0691C7.59412 12.0572 7.56373 12.0509 7.533 12.0507ZM8.7195 7.66473C8.65744 7.66473 8.59792 7.68938 8.55404 7.73327C8.51015 7.77715 8.4855 7.83667 8.4855 7.89873V13.1277C8.4855 13.2567 8.5905 13.3602 8.7195 13.3602H9.5625C9.6915 13.3602 9.795 13.2552 9.795 13.1277V7.89873C9.795 7.83693 9.77055 7.77763 9.72699 7.73379C9.68343 7.68995 9.6243 7.66512 9.5625 7.66473H8.7195ZM14.514 7.66473C14.4519 7.66473 14.3924 7.68938 14.3485 7.73327C14.3047 7.77715 14.28 7.83667 14.28 7.89873V11.0037L11.8845 7.76973C11.8784 7.76185 11.8719 7.75434 11.865 7.74723V7.74573C11.8603 7.74048 11.8553 7.73547 11.85 7.73073L11.8455 7.72623C11.8404 7.72131 11.8348 7.7168 11.829 7.71273H11.8275L11.82 7.70673L11.8155 7.70373C11.8132 7.70198 11.8106 7.70047 11.808 7.69923L11.796 7.69173H11.793L11.7885 7.68873L11.7735 7.68273L11.7675 7.67973C11.7626 7.67795 11.7576 7.67645 11.7525 7.67523H11.7495L11.745 7.67373L11.7315 7.67073H11.7225L11.718 7.66923H11.712L11.709 7.66773H10.848C10.7862 7.66773 10.7269 7.69217 10.6831 7.73573C10.6392 7.77929 10.6144 7.83843 10.614 7.90023V13.1292C10.614 13.2582 10.719 13.3617 10.848 13.3617H11.688C11.8185 13.3617 11.9235 13.2567 11.9235 13.1292V10.0242L14.3235 13.2642C14.3395 13.2866 14.3593 13.3059 14.382 13.3212L14.3835 13.3227L14.3985 13.3317L14.4045 13.3347C14.4084 13.337 14.4124 13.339 14.4165 13.3407L14.427 13.3452L14.4345 13.3482C14.4395 13.3499 14.4445 13.3514 14.4495 13.3527H14.454C14.4735 13.3583 14.4937 13.3614 14.514 13.3617H15.354C15.4845 13.3617 15.5895 13.2567 15.5895 13.1292V7.89873C15.5895 7.83667 15.5648 7.77715 15.521 7.73327C15.4771 7.68938 15.4176 7.66473 15.3555 7.66473H14.514ZM20.2365 8.74023V7.90023C20.2367 7.8695 20.2308 7.83903 20.2193 7.81057C20.2077 7.7821 20.1906 7.75619 20.169 7.73432C20.1474 7.71246 20.1217 7.69506 20.0934 7.68311C20.0651 7.67117 20.0347 7.66493 20.004 7.66473H16.641C16.5805 7.6648 16.5223 7.68848 16.479 7.73073H16.4775L16.476 7.73373L16.473 7.73823C16.4311 7.7812 16.4075 7.83872 16.407 7.89873V13.1277C16.407 13.1892 16.4325 13.2477 16.473 13.2882L16.476 13.2927L16.479 13.2957C16.5226 13.3374 16.5807 13.3606 16.641 13.3602H20.004C20.133 13.3602 20.2365 13.2552 20.2365 13.1262V12.2862C20.2367 12.2555 20.2308 12.225 20.2193 12.1966C20.2077 12.1681 20.1906 12.1422 20.169 12.1203C20.1474 12.0985 20.1217 12.0811 20.0934 12.0691C20.0651 12.0572 20.0347 12.0509 20.004 12.0507H17.715V11.1672H20.0025C20.1315 11.1672 20.235 11.0622 20.235 10.9332V10.0932C20.2352 10.0625 20.2293 10.032 20.2178 10.0036C20.2062 9.9751 20.1891 9.94919 20.1675 9.92733C20.1459 9.90546 20.1202 9.88805 20.0919 9.87611C20.0636 9.86417 20.0332 9.85792 20.0025 9.85773H17.715V8.97423H20.0025C20.1315 8.97423 20.235 8.86923 20.235 8.74023H20.2365Z" fill="#162E45"/>
</svg>
