<svg width="24" height="24" viewBox="0 0 24 24" fill="none" xmlns="http://www.w3.org/2000/svg">
<path d="M12 0.521484C18.6165 0.521484 24 4.88948 24 10.2595C24 12.409 23.1675 14.344 21.4275 16.2505C18.9105 19.1485 13.281 22.678 12 23.218C10.755 23.743 10.899 22.9225 10.956 22.5985L10.9605 22.5715L11.1315 21.544C11.172 21.238 11.214 20.7625 11.0925 20.4595C10.9575 20.125 10.4265 19.951 10.0365 19.867C4.269 19.1065 0 15.073 0 10.2595C0 4.88948 5.385 0.521484 12 0.521484ZM7.533 12.0505H5.2455V7.89848C5.2455 7.83668 5.22105 7.77739 5.17749 7.73355C5.13393 7.68971 5.0748 7.66488 5.013 7.66448H4.17C4.13927 7.66448 4.10884 7.67054 4.08045 7.6823C4.05206 7.69406 4.02627 7.71129 4.00454 7.73302C3.98281 7.75475 3.96557 7.78055 3.95381 7.80894C3.94205 7.83733 3.936 7.86776 3.936 7.89848V13.1275C3.936 13.189 3.9615 13.2475 4.002 13.288V13.2895L4.005 13.2925L4.008 13.2955C4.0515 13.3373 4.10965 13.3605 4.17 13.36H7.533C7.662 13.36 7.7655 13.255 7.7655 13.126V12.286C7.7657 12.2553 7.75984 12.2248 7.74826 12.1963C7.73669 12.1679 7.71961 12.1419 7.69802 12.1201C7.67644 12.0982 7.65075 12.0808 7.62243 12.0689C7.59412 12.0569 7.56373 12.0507 7.533 12.0505ZM8.7195 7.66448C8.65744 7.66448 8.59792 7.68914 8.55404 7.73302C8.51015 7.77691 8.4855 7.83642 8.4855 7.89848V13.1275C8.4855 13.2565 8.5905 13.36 8.7195 13.36H9.5625C9.6915 13.36 9.795 13.255 9.795 13.1275V7.89848C9.795 7.83668 9.77055 7.77739 9.72699 7.73355C9.68343 7.68971 9.6243 7.66488 9.5625 7.66448H8.7195ZM14.514 7.66448C14.4519 7.66448 14.3924 7.68914 14.3485 7.73302C14.3047 7.77691 14.28 7.83642 14.28 7.89848V11.0035L11.8845 7.76948C11.8784 7.76161 11.8719 7.7541 11.865 7.74698V7.74548C11.8603 7.74023 11.8553 7.73523 11.85 7.73048L11.8455 7.72598C11.8404 7.72107 11.8348 7.71655 11.829 7.71248H11.8275L11.82 7.70648L11.8155 7.70348C11.8132 7.70174 11.8106 7.70023 11.808 7.69898L11.796 7.69148H11.793L11.7885 7.68848L11.7735 7.68248L11.7675 7.67948C11.7626 7.6777 11.7576 7.6762 11.7525 7.67498H11.7495L11.745 7.67348L11.7315 7.67048H11.7225L11.718 7.66898H11.712L11.709 7.66748H10.848C10.7862 7.66748 10.7269 7.69193 10.6831 7.73549C10.6392 7.77905 10.6144 7.83818 10.614 7.89998V13.129C10.614 13.258 10.719 13.3615 10.848 13.3615H11.688C11.8185 13.3615 11.9235 13.2565 11.9235 13.129V10.024L14.3235 13.264C14.3395 13.2863 14.3593 13.3056 14.382 13.321L14.3835 13.3225L14.3985 13.3315L14.4045 13.3345C14.4084 13.3368 14.4124 13.3388 14.4165 13.3405L14.427 13.345L14.4345 13.348C14.4395 13.3496 14.4445 13.3511 14.4495 13.3525H14.454C14.4735 13.3581 14.4937 13.3611 14.514 13.3615H15.354C15.4845 13.3615 15.5895 13.2565 15.5895 13.129V7.89848C15.5895 7.83642 15.5648 7.77691 15.521 7.73302C15.4771 7.68914 15.4176 7.66448 15.3555 7.66448H14.514ZM20.2365 8.73998V7.89998C20.2367 7.86926 20.2308 7.83879 20.2193 7.81032C20.2077 7.78186 20.1906 7.75595 20.169 7.73408C20.1474 7.71221 20.1217 7.69481 20.0934 7.68287C20.0651 7.67093 20.0347 7.66468 20.004 7.66448H16.641C16.5805 7.66456 16.5223 7.68823 16.479 7.73048H16.4775L16.476 7.73348L16.473 7.73798C16.4311 7.78096 16.4075 7.83847 16.407 7.89848V13.1275C16.407 13.189 16.4325 13.2475 16.473 13.288L16.476 13.2925L16.479 13.2955C16.5226 13.3372 16.5807 13.3603 16.641 13.36H20.004C20.133 13.36 20.2365 13.255 20.2365 13.126V12.286C20.2367 12.2553 20.2308 12.2248 20.2193 12.1963C20.2077 12.1679 20.1906 12.1419 20.169 12.1201C20.1474 12.0982 20.1217 12.0808 20.0934 12.0689C20.0651 12.0569 20.0347 12.0507 20.004 12.0505H17.715V11.167H20.0025C20.1315 11.167 20.235 11.062 20.235 10.933V10.093C20.2352 10.0623 20.2293 10.0318 20.2178 10.0033C20.2062 9.97486 20.1891 9.94895 20.1675 9.92708C20.1459 9.90521 20.1202 9.88781 20.0919 9.87587C20.0636 9.86393 20.0332 9.85768 20.0025 9.85748H17.715V8.97398H20.0025C20.1315 8.97398 20.235 8.86898 20.235 8.73998H20.2365Z" fill="white"/>
</svg>
